<?xml version="1.0" encoding="utf-8"?>
<!-- Generator: Adobe Illustrator 18.0.0, SVG Export Plug-In . SVG Version: 6.00 Build 0)  -->
<!DOCTYPE svg PUBLIC "-//W3C//DTD SVG 1.1//EN" "http://www.w3.org/Graphics/SVG/1.1/DTD/svg11.dtd">
<svg version="1.1" id="Icon_Set" xmlns="http://www.w3.org/2000/svg" xmlns:xlink="http://www.w3.org/1999/xlink" x="0px" y="0px"
	 viewBox="0 0 256 256" style="enable-background:new 0 0 256 256;" xml:space="preserve">
<style type="text/css">
	.st0{fill:#4C4372;}
	.st1{fill:#F0C48A;}
	.st2{fill:#FD919E;}
	.st3{fill:#D3E6F8;}
	.st4{fill:#A4CFF2;}
	.st5{fill:#FFFFFF;}
	.st6{fill:#7BABF1;}
	.st7{fill:#E8677D;}
</style>
<g>
	<g>
		<g>
			<circle class="st1" cx="128" cy="128" r="103.5"/>
		</g>
	</g>
	<g>
		<path class="st6" d="M100.494,61.683c0.188-1.529,0.669-2.957,1.373-4.238l-8.688-6.124l-4.915,21.217l10.016,7.115
			L100.494,61.683z"/>
	</g>
	<g>
		<path class="st6" d="M162.821,51.321l-8.688,6.124c0.704,1.281,1.184,2.709,1.373,4.238l2.215,17.97l10.016-7.115L162.821,51.321z
			"/>
	</g>
	<g>
		<path class="st2" d="M198.095,204.679h-33.796v-13.045c0-3.966,3.215-7.181,7.181-7.181h19.435c3.966,0,7.181,3.215,7.181,7.181
			V204.679z"/>
	</g>
	<g>
		<path class="st3" d="M171.983,184.454h18.428v-64.131c0-5.089-4.125-9.214-9.214-9.214l0,0c-5.089,0-9.214,4.125-9.214,9.214
			V184.454z"/>
	</g>
	<g>
		<path class="st3" d="M75.085,94.001L75.085,94.001c4.805,0,8.974-3.314,10.059-7.995l8.035-34.685h-12.69
			c-4.98,0-9.303,3.436-10.427,8.288l-5.036,21.737C63.527,87.817,68.442,94.001,75.085,94.001z"/>
	</g>
	<g>
		<path class="st0" d="M75.085,97c-4.086,0-7.888-1.835-10.431-5.034c-2.542-3.199-3.472-7.317-2.55-11.298l5.036-21.738
			c1.447-6.247,6.937-10.61,13.349-10.61h12.69c0.915,0,1.779,0.417,2.349,1.133c0.569,0.716,0.78,1.653,0.574,2.544l-8.035,34.685
			C86.659,92.758,81.321,97,75.085,97z M80.489,54.321c-3.605,0-6.69,2.453-7.504,5.965l-5.036,21.737
			c-0.507,2.188,0.004,4.452,1.402,6.21C70.749,89.992,72.839,91,75.085,91c3.428,0,6.362-2.333,7.136-5.672l7.183-31.008H80.489z"
			/>
	</g>
	<g>
		<path class="st4" d="M144.47,176.239H111.53c-15.195,0-27.513-12.318-27.513-27.514v-37.617h87.966v37.617
			C171.983,163.921,159.665,176.239,144.47,176.239z"/>
	</g>
	<g>
		<path class="st2" d="M91.701,204.679H57.905v-13.045c0-3.966,3.215-7.181,7.181-7.181H84.52c3.966,0,7.181,3.215,7.181,7.181
			V204.679z"/>
	</g>
	<g>
		<path class="st7" d="M190.914,184.454h-11.665c3.965,0,7.18,3.215,7.18,7.181v13.045h11.665v-13.045
			C198.095,187.669,194.88,184.454,190.914,184.454z"/>
	</g>
	<g>
		<path class="st6" d="M160.797,111.109v37.617c0,15.195-12.318,27.514-27.513,27.514h11.186c15.195,0,27.513-12.318,27.513-27.514
			v-37.617H160.797z"/>
	</g>
	<g>
		<path class="st3" d="M65.589,184.454h18.428v-64.131c0-5.089-4.125-9.214-9.214-9.214l0,0c-5.089,0-9.214,4.125-9.214,9.214
			V184.454z"/>
	</g>
	<g>
		<path class="st4" d="M181.197,111.109c-1.68,0-3.251,0.457-4.607,1.243c2.752,1.594,4.607,4.563,4.607,7.971v64.131h9.214v-64.131
			C190.411,115.234,186.286,111.109,181.197,111.109z"/>
	</g>
	<g>
		<path class="st6" d="M62.317,137.337h3.272v-13.476h-3.272c-3.721,0-6.738,3.017-6.738,6.738l0,0
			C55.579,134.32,58.596,137.337,62.317,137.337z"/>
	</g>
	<g>
		<path class="st6" d="M193.683,137.337h-3.272v-13.476h3.272c3.722,0,6.738,3.017,6.738,6.738l0,0
			C200.421,134.32,197.404,137.337,193.683,137.337z"/>
	</g>
	<g>
		<path class="st6" d="M74.803,162.749L74.803,162.749c-5.089,0-9.214-4.126-9.214-9.214v-0.001c0-5.088,4.125-9.214,9.214-9.214
			l0,0c5.089,0,9.214,4.126,9.214,9.214v0.001C84.017,158.623,79.892,162.749,74.803,162.749z"/>
	</g>
	<g>
		<path class="st6" d="M181.197,162.749L181.197,162.749c-5.089,0-9.214-4.126-9.214-9.214v-0.001c0-5.088,4.125-9.214,9.214-9.214
			l0,0c5.089,0,9.214,4.126,9.214,9.214v0.001C190.411,158.623,186.286,162.749,181.197,162.749z"/>
	</g>
	<g>
		<path class="st0" d="M144.47,179.239H111.53c-16.825,0-30.513-13.688-30.513-30.514v-37.617c0-1.657,1.343-3,3-3h87.966
			c1.657,0,3,1.343,3,3v37.617C174.983,165.551,161.295,179.239,144.47,179.239z M87.017,114.109v34.617
			c0,13.517,10.997,24.514,24.513,24.514h32.939c13.517,0,24.513-10.997,24.513-24.514v-34.617H87.017z"/>
	</g>
	<g>
		<path class="st0" d="M84.017,187.454H65.589c-1.657,0-3-1.343-3-3v-64.131c0-6.735,5.479-12.214,12.214-12.214
			s12.214,5.479,12.214,12.214v64.131C87.017,186.11,85.674,187.454,84.017,187.454z M68.589,181.454h12.428v-61.131
			c0-3.426-2.788-6.214-6.214-6.214s-6.214,2.788-6.214,6.214V181.454z"/>
	</g>
	<g>
		<path class="st0" d="M190.411,187.454h-18.428c-1.657,0-3-1.343-3-3v-64.131c0-6.735,5.479-12.214,12.214-12.214
			s12.214,5.479,12.214,12.214v64.131C193.411,186.11,192.067,187.454,190.411,187.454z M174.983,181.454h12.428v-61.131
			c0-3.426-2.788-6.214-6.214-6.214s-6.214,2.788-6.214,6.214V181.454z"/>
	</g>
	<g>
		<path class="st0" d="M91.701,207.679H57.905c-1.657,0-3-1.343-3-3v-13.045c0-5.614,4.567-10.181,10.181-10.181h19.435
			c5.614,0,10.181,4.567,10.181,10.181v13.045C94.701,206.336,93.358,207.679,91.701,207.679z M60.905,201.679h27.796v-10.045
			c0-2.305-1.875-4.181-4.181-4.181H65.086c-2.305,0-4.181,1.875-4.181,4.181V201.679z"/>
	</g>
	<g>
		<path class="st0" d="M80.392,207.679c-1.657,0-3-1.343-3-3v-17.226h-5.178v17.226c0,1.657-1.343,3-3,3s-3-1.343-3-3v-20.226
			c0-1.657,1.343-3,3-3h11.178c1.657,0,3,1.343,3,3v20.226C83.392,206.336,82.049,207.679,80.392,207.679z"/>
	</g>
	<g>
		<path class="st0" d="M198.095,207.679h-33.796c-1.657,0-3-1.343-3-3v-13.045c0-5.614,4.567-10.181,10.181-10.181h19.435
			c5.614,0,10.181,4.567,10.181,10.181v13.045C201.095,206.336,199.751,207.679,198.095,207.679z M167.299,201.679h27.796v-10.045
			c0-2.305-1.875-4.181-4.181-4.181h-19.435c-2.305,0-4.181,1.875-4.181,4.181V201.679z"/>
	</g>
	<g>
		<path class="st0" d="M186.786,207.679c-1.657,0-3-1.343-3-3v-17.226h-5.178v17.226c0,1.657-1.343,3-3,3s-3-1.343-3-3v-20.226
			c0-1.657,1.343-3,3-3h11.178c1.657,0,3,1.343,3,3v20.226C189.786,206.336,188.442,207.679,186.786,207.679z"/>
	</g>
	<g>
		<path class="st0" d="M65.589,140.337h-3.272c-5.37,0-9.738-4.368-9.738-9.738s4.368-9.738,9.738-9.738h3.272c1.657,0,3,1.343,3,3
			v13.476C68.589,138.994,67.246,140.337,65.589,140.337z M62.317,126.861c-2.061,0-3.738,1.677-3.738,3.738
			s1.677,3.738,3.738,3.738h0.272v-7.476H62.317z"/>
	</g>
	<g>
		<path class="st0" d="M193.683,140.337h-3.272c-1.657,0-3-1.343-3-3v-13.476c0-1.657,1.343-3,3-3h3.272
			c5.37,0,9.738,4.368,9.738,9.738S199.052,140.337,193.683,140.337z M193.411,134.337h0.272c2.062,0,3.738-1.677,3.738-3.738
			s-1.677-3.738-3.738-3.738h-0.272V134.337z"/>
	</g>
	<g>
		<path class="st0" d="M74.803,165.749c-6.735,0-12.214-5.479-12.214-12.214s5.479-12.214,12.214-12.214s12.214,5.479,12.214,12.214
			S81.538,165.749,74.803,165.749z M74.803,147.32c-3.426,0-6.214,2.788-6.214,6.214c0,3.427,2.788,6.214,6.214,6.214
			s6.214-2.788,6.214-6.214C81.017,150.108,78.229,147.32,74.803,147.32z"/>
	</g>
	<g>
		<path class="st0" d="M181.197,165.749c-6.735,0-12.214-5.479-12.214-12.214s5.479-12.214,12.214-12.214
			s12.214,5.479,12.214,12.214S187.932,165.749,181.197,165.749z M181.197,147.32c-3.426,0-6.214,2.788-6.214,6.214
			c0,3.427,2.788,6.214,6.214,6.214s6.214-2.788,6.214-6.214C187.411,150.108,184.623,147.32,181.197,147.32z"/>
	</g>
	<g>
		<path class="st3" d="M150.768,131.558h-45.535c-7.092,0-12.584-6.21-11.716-13.249l6.978-56.626
			c0.729-5.917,5.755-10.362,11.716-10.362h31.579c5.961,0,10.987,4.445,11.716,10.362l6.978,56.626
			C163.351,125.348,157.86,131.558,150.768,131.558z"/>
	</g>
	<g>
		<path class="st4" d="M162.484,118.309l-6.978-56.626c-0.729-5.917-5.755-10.362-11.716-10.362h-9.214
			c5.961,0,10.987,4.445,11.716,10.362l6.978,56.626c0.867,7.039-4.624,13.249-11.716,13.249h9.214
			C157.86,131.558,163.351,125.348,162.484,118.309z"/>
	</g>
	<g>
		<path class="st6" d="M131.232,119.885h-6.464c-5.261,0-9.527-4.265-9.527-9.527v-2.692c0-1.585,1.285-2.869,2.87-2.869h19.778
			c1.584,0,2.87,1.285,2.87,2.869v2.692C140.759,115.62,136.493,119.885,131.232,119.885z"/>
	</g>
	<g>
		<path class="st0" d="M131.232,122.885h-6.464c-6.907,0-12.527-5.62-12.527-12.527v-2.692c0-3.236,2.633-5.869,5.87-5.869h19.778
			c3.236,0,5.87,2.633,5.87,5.869v2.692C143.759,117.265,138.139,122.885,131.232,122.885z M118.241,107.797v2.561
			c0,3.599,2.928,6.527,6.527,6.527h6.464c3.599,0,6.527-2.928,6.527-6.527v-2.561H118.241z"/>
	</g>
	<g>
		<path class="st3" d="M180.915,94.001L180.915,94.001c-4.805,0-8.974-3.314-10.059-7.995l-8.035-34.685h12.69
			c4.98,0,9.303,3.436,10.427,8.288l5.036,21.737C192.473,87.817,187.558,94.001,180.915,94.001z"/>
	</g>
	<g>
		<path class="st4" d="M190.974,81.346l-5.036-21.737c-1.124-4.852-5.446-8.288-10.427-8.288h-8.007
			c4.98,0,9.303,3.436,10.427,8.288l5.035,21.737c1.175,5.072-1.59,9.966-6.04,11.846c1.235,0.518,2.583,0.809,3.988,0.809l0,0
			C187.559,94.001,192.473,87.817,190.974,81.346z"/>
	</g>
	<g>
		<path class="st2" d="M143.088,85.773h-30.176c-3.735,0-6.764-3.028-6.764-6.763l0,0c0-3.735,3.028-6.764,6.764-6.764h30.176
			c3.735,0,6.764,3.028,6.764,6.764l0,0C149.852,82.745,146.823,85.773,143.088,85.773z"/>
	</g>
	<g>
		<path class="st7" d="M143.088,72.246h-10.665c3.735,0,6.763,3.028,6.763,6.764c0,3.735-3.028,6.763-6.763,6.763h10.665
			c3.735,0,6.764-3.028,6.764-6.763C149.852,75.274,146.823,72.246,143.088,72.246z"/>
	</g>
	<g>
		<path class="st0" d="M143.088,88.773h-30.176c-5.384,0-9.764-4.38-9.764-9.763c0-5.384,4.38-9.764,9.764-9.764h30.176
			c5.384,0,9.764,4.38,9.764,9.764C152.852,84.393,148.472,88.773,143.088,88.773z M112.912,75.246
			c-2.075,0-3.764,1.688-3.764,3.764s1.688,3.763,3.764,3.763h30.176c2.075,0,3.764-1.688,3.764-3.763s-1.688-3.764-3.764-3.764
			H112.912z"/>
	</g>
	<g>
		<path class="st2" d="M128,161.238L128,161.238c-6.178,0-11.186-5.008-11.186-11.186v-18.495h22.371v18.495
			C139.185,156.23,134.178,161.238,128,161.238z"/>
	</g>
	<g>
		<path class="st7" d="M130.792,131.558v18.495c0,4.693-2.892,8.708-6.989,10.369c1.296,0.525,2.712,0.817,4.197,0.817
			c6.178,0,11.185-5.008,11.185-11.186v-18.495H130.792z"/>
	</g>
	<g>
		<path class="st0" d="M128,164.238c-7.822,0-14.186-6.364-14.186-14.186v-18.495c0-1.657,1.343-3,3-3h22.372c1.657,0,3,1.343,3,3
			v18.495C142.186,157.875,135.822,164.238,128,164.238z M119.814,134.558v15.495c0,4.514,3.672,8.186,8.186,8.186
			s8.186-3.672,8.186-8.186v-15.495H119.814z"/>
	</g>
	<g>
		<path class="st0" d="M128,149.398c-1.657,0-3-1.343-3-3v-14.84c0-1.657,1.343-3,3-3s3,1.343,3,3v14.84
			C131,148.055,129.657,149.398,128,149.398z"/>
	</g>
	<g>
		<path class="st0" d="M98.28,82.653c-0.613,0-1.222-0.188-1.738-0.554l-10.016-7.115c-0.992-0.705-1.46-1.938-1.185-3.123
			l4.916-21.217c0.225-0.973,0.92-1.77,1.853-2.125c0.933-0.357,1.982-0.225,2.798,0.351l8.688,6.124
			c1.249,0.88,1.636,2.558,0.901,3.897c-0.543,0.988-0.888,2.051-1.024,3.161l-2.215,17.97c-0.129,1.048-0.801,1.952-1.767,2.378
			C99.102,82.569,98.69,82.653,98.28,82.653z M91.64,71.256l4.277,3.039l1.6-12.979c0.119-0.964,0.331-1.906,0.633-2.821
			l-3.055-2.153L91.64,71.256z"/>
	</g>
	<g>
		<path class="st0" d="M150.768,134.558h-45.535c-4.24,0-8.282-1.822-11.09-4.998c-2.809-3.176-4.122-7.411-3.604-11.619
			l6.978-56.625c0.913-7.409,7.23-12.995,14.694-12.995h31.579c7.464,0,13.781,5.586,14.694,12.995l6.978,56.626
			c0.519,4.208-0.795,8.443-3.604,11.619S155.007,134.558,150.768,134.558z M112.21,54.321c-4.439,0-8.196,3.323-8.739,7.729
			l-6.978,56.626c-0.309,2.502,0.473,5.021,2.143,6.91c1.67,1.889,4.074,2.972,6.596,2.972h45.535c2.521,0,4.925-1.083,6.595-2.972
			c1.671-1.889,2.452-4.407,2.144-6.91l-6.978-56.626c-0.543-4.406-4.3-7.729-8.739-7.729H112.21z"/>
	</g>
	<g>
		<path class="st0" d="M157.72,82.653c-0.41,0-0.822-0.084-1.21-0.255c-0.966-0.426-1.638-1.33-1.767-2.378l-2.215-17.97
			c-0.137-1.109-0.481-2.173-1.024-3.161c-0.735-1.339-0.348-3.017,0.901-3.897l8.688-6.124c0.816-0.576,1.865-0.707,2.798-0.351
			c0.933,0.356,1.627,1.153,1.853,2.125l4.915,21.217c0.274,1.185-0.194,2.418-1.186,3.123l-10.016,7.115
			C158.942,82.465,158.333,82.653,157.72,82.653z M157.851,58.495c0.302,0.915,0.514,1.857,0.633,2.821l1.6,12.979l4.277-3.038
			l-3.455-14.915L157.851,58.495z"/>
	</g>
	<g>
		<path class="st0" d="M180.915,97c-6.236,0-11.574-4.243-12.981-10.317l-8.035-34.685c-0.207-0.891,0.005-1.828,0.574-2.544
			c0.569-0.716,1.434-1.133,2.349-1.133h12.69c6.413,0,11.902,4.363,13.349,10.61l5.036,21.737c0.922,3.981-0.007,8.099-2.55,11.298
			C188.803,95.166,185.001,97,180.915,97z M166.596,54.321l7.183,31.008c0.774,3.339,3.708,5.672,7.136,5.672
			c2.246,0,4.336-1.009,5.734-2.767c1.398-1.759,1.909-4.022,1.402-6.211l-5.035-21.737c-0.814-3.512-3.899-5.965-7.504-5.965
			H166.596z"/>
	</g>
</g>
</svg>
